<svg xmlns="http://www.w3.org/2000/svg" width="30" height="80" xml:space="preserve"><path fill="#0F80C4" d="M20.5 18.7c-.9 0-1.7.3-2.4.8l-6.8-4.1c0-.2.1-.4.1-.6s0-.4-.1-.6l6.8-4.2c.6.5 1.5.8 2.4.8 2.2 0 4-1.8 4-4S22.6 3 20.5 3s-4 1.8-4 4c0 .2 0 .4.1.6l-6.9 4.1c-.6-.5-1.5-.8-2.3-.8-2.2 0-4 1.8-4 4s1.8 3.9 4 3.9c.9 0 1.7-.3 2.4-.8l6.8 4.1c0 .2-.1.4-.1.6 0 2.2 1.8 4 4 4s4-1.8 4-4-1.9-4-4-4zM20.5 68.7c-.9 0-1.7.3-2.4.8l-6.8-4.1c0-.2.1-.4.1-.6s0-.4-.1-.6l6.8-4.2c.6.5 1.5.8 2.4.8 2.2 0 4-1.8 4-4s-1.9-3.9-4-3.9-4 1.8-4 4c0 .2 0 .4.1.6l-6.9 4.1c-.6-.5-1.5-.8-2.3-.8-2.2 0-4 1.8-4 4s1.8 3.9 4 3.9c.9 0 1.7-.3 2.4-.8l6.8 4.1c0 .2-.1.4-.1.6 0 2.2 1.8 4 4 4s4-1.8 4-4c0-2.3-1.9-3.9-4-3.9z"/></svg>