<svg xmlns="http://www.w3.org/2000/svg" width="23" height="50" xml:space="preserve"><path fill="#FFF" d="M7.1 5.1c0 1.2-.9 2.1-2.1 2.1-1.1 0-2-1-2-2.1C3 3.9 3.9 3 5.1 3c1.1 0 2 .9 2 2.1zm-.2 3.6H3.3V20h3.5l.1-11.3zm5.6 0H9.1V20h3.4v-6c0-1.6.7-2.5 2.1-2.5 1.3 0 1.9.9 1.9 2.5v6H20v-7.2c0-3.1-1.7-4.5-4.1-4.5s-3.4 1.9-3.4 1.9V8.7z"/><path fill="#0D6BA8" d="M7.1 32.1c0 1.2-.9 2.1-2.1 2.1-1.1 0-2-1-2-2.1 0-1.2.9-2.1 2.1-2.1 1.1 0 2 .9 2 2.1zm-.2 3.6H3.3V47h3.5l.1-11.3zm5.6 0H9.1V47h3.4v-6c0-1.6.7-2.5 2.1-2.5 1.3 0 1.9.9 1.9 2.5v6H20v-7.2c0-3.1-1.7-4.5-4.1-4.5s-3.4 1.9-3.4 1.9v-1.5z"/></svg>