<svg xmlns="http://www.w3.org/2000/svg" width="23" height="50" xml:space="preserve"><path fill="#FFF" d="M21 5.8c-.7.3-1.4.6-2.2.6.8-.5 1.4-1.3 1.7-2.1-.8.5-1.6.8-2.5 1-.7-.8-1.7-1.3-2.9-1.3-2.5 0-4.4 2.4-3.8 4.8-3.2-.2-6.1-1.7-8-4-1.1 1.7-.6 4 1.1 5.2-.6 0-1.3-.2-1.7-.5-.1 1.8 1.3 3.5 3.1 3.9-.6.2-1.2.2-1.7.1.5 1.5 1.9 2.6 3.7 2.6-1.7 1.3-3.7 1.8-5.8 1.6 1.7 1.1 3.8 1.7 5.9 1.7 7.2 0 11.3-6.1 11.1-11.6.8-.5 1.4-1.2 2-2z"/><path fill="#0D6BA8" d="M21 32.8c-.7.3-1.4.6-2.2.6.8-.5 1.4-1.3 1.7-2.1-.8.5-1.6.8-2.5 1-.7-.8-1.7-1.3-2.9-1.3-2.5 0-4.4 2.4-3.8 4.8-3.2-.2-6.1-1.7-8-4-1.1 1.7-.6 4 1.1 5.2-.6 0-1.3-.2-1.7-.5-.1 1.8 1.3 3.5 3.1 3.9-.6.2-1.2.2-1.7.1.5 1.5 1.9 2.6 3.7 2.6-1.7 1.3-3.7 1.8-5.8 1.6 1.7 1.1 3.8 1.7 5.9 1.7 7.2 0 11.3-6.1 11.1-11.6.8-.5 1.4-1.2 2-2z"/></svg>