<svg xmlns="http://www.w3.org/2000/svg" width="23" height="50" xml:space="preserve"><path fill="#FFF" d="M21.7 6.2H19v2.7h-1.3V6.2H15V4.9h2.7V2.2H19v2.7h2.7v1.3zm-7.5 10.9c0 2-1.8 4.4-6.4 4.4-3.3 0-6.1-1.4-6.1-3.8 0-1.8 1.2-4.3 6.8-4.3-.8-.7-1-1.6-.5-2.6-3.3 0-4.9-1.9-4.9-4.3C3.1 4.2 4.8 2 8.4 2h5.7l-1.3 1.3h-1.4c1.1.6 1.7 1.8 1.7 3.3 0 1.3-.7 2.3-1.7 3.1-1.7 1.3-1.3 2.2.5 3.5 1.7 1.3 2.3 2.4 2.3 3.9zM10.6 6.7C10.3 4.7 9 3 7.4 2.9S4.9 4.4 5.1 6.5c.3 2 1.8 3.4 3.3 3.4 1.6.1 2.5-1.2 2.2-3.2zm1.6 10.7c0-1.7-1.5-3.3-4.1-3.3-2.3 0-4.3 1.4-4.3 3.2s1.7 3.3 4 3.3c3-.1 4.4-1.4 4.4-3.2z"/><path fill="#0D6BA8" d="M21.7 33.2H19v2.7h-1.3v-2.7H15v-1.3h2.7v-2.7H19v2.7h2.7v1.3zm-7.5 10.9c0 2-1.8 4.4-6.4 4.4-3.3 0-6.1-1.4-6.1-3.8 0-1.8 1.2-4.3 6.8-4.3-.8-.7-1-1.6-.5-2.6-3.3 0-4.9-1.9-4.9-4.3 0-2.3 1.7-4.5 5.3-4.5h5.7l-1.3 1.3h-1.4c1.1.6 1.7 1.8 1.7 3.3 0 1.3-.7 2.3-1.7 3.1-1.7 1.3-1.3 2.2.5 3.5 1.7 1.3 2.3 2.4 2.3 3.9zm-3.6-10.4c-.3-2-1.6-3.7-3.2-3.8s-2.5 1.5-2.3 3.6c.3 2 1.8 3.4 3.3 3.4 1.6.1 2.5-1.2 2.2-3.2zm1.6 10.7c0-1.7-1.5-3.3-4.1-3.3-2.3 0-4.3 1.4-4.3 3.2s1.7 3.3 4 3.3c3-.1 4.4-1.4 4.4-3.2z"/></svg>