<svg xmlns="http://www.w3.org/2000/svg" width="30" height="80" xml:space="preserve"><path fill="#FFF" d="M10.1 7.1c0 1.4-1.1 2.6-2.5 2.6C6.1 9.7 5 8.5 5 7.1s1.1-2.6 2.6-2.6c1.4 0 2.5 1.2 2.5 2.6zm-.3 4.4H5.4v14h4.3l.1-14zm6.9 0h-4.2v14h4.2v-7.4c0-2 .9-3.1 2.6-3.1 1.6 0 2.4 1.1 2.4 3.1v7.4H26v-8.9c0-3.8-2.1-5.6-5.1-5.6s-4.2 2.3-4.2 2.3v-1.8z"/><path fill="#0D6BA8" d="M10.1 57.1c0 1.4-1.1 2.6-2.5 2.6-1.5 0-2.6-1.2-2.6-2.6 0-1.4 1.1-2.6 2.6-2.6 1.4 0 2.5 1.2 2.5 2.6zm-.3 4.4H5.4v14h4.3l.1-14zm6.9 0h-4.2v14h4.2v-7.4c0-2 .9-3.1 2.6-3.1 1.6 0 2.4 1.1 2.4 3.1v7.4H26v-8.9c0-3.8-2.1-5.6-5.1-5.6s-4.2 2.3-4.2 2.3v-1.8z"/></svg>