<svg xmlns="http://www.w3.org/2000/svg" width="30" height="80" xml:space="preserve"><path fill="#FFF" d="M26.5 8.1h-3.2v3.2h-1.6V8.1h-3.2V6.5h3.2V3.3h1.6v3.2h3.2v1.6zm-9 13.2c0 2.4-2.2 5.3-7.7 5.3-4 0-7.3-1.7-7.3-4.6 0-2.2 1.4-5.2 8.1-5.2-1-.8-1.2-1.9-.6-3.1-3.9 0-5.9-2.3-5.9-5.2S6.2 3 10.5 3h6.9l-1.5 1.6h-1.8c1.3.7 2 2.2 2 3.9 0 1.5-.8 2.8-2 3.7-2.1 1.6-1.6 2.6.6 4.2 2.1 1.6 2.8 2.9 2.8 4.9zM13.2 8.6c-.3-2.4-1.9-4.4-3.8-4.5-1.8 0-3.1 1.8-2.8 4.3.3 2.4 2.1 4.1 3.9 4.2 2 0 3-1.5 2.7-4zm1.9 12.9c0-2-1.8-3.9-4.9-3.9-2.8 0-5.1 1.7-5.1 3.8s2 3.9 4.8 3.9c3.5-.1 5.2-1.7 5.2-3.8z"/><path fill="#0D6BA8" d="M26.5 58.1h-3.2v3.2h-1.6v-3.2h-3.2v-1.6h3.2v-3.2h1.6v3.2h3.2v1.6zm-9 13.2c0 2.4-2.2 5.3-7.7 5.3-4 0-7.3-1.7-7.3-4.6 0-2.2 1.4-5.2 8.1-5.2-1-.8-1.2-1.9-.6-3.1-3.9 0-5.9-2.3-5.9-5.2 0-2.9 2.1-5.5 6.4-5.5h6.9l-1.5 1.6h-1.8c1.3.7 2 2.2 2 3.9 0 1.5-.8 2.8-2 3.7-2.1 1.6-1.6 2.6.6 4.2 2.1 1.6 2.8 2.9 2.8 4.9zm-4.3-12.7c-.3-2.4-1.9-4.4-3.8-4.5-1.8 0-3.1 1.8-2.8 4.3.3 2.4 2.1 4.1 3.9 4.2 2 0 3-1.5 2.7-4zm1.9 12.9c0-2-1.8-3.9-4.9-3.9-2.8 0-5.1 1.7-5.1 3.8s2 3.9 4.8 3.9c3.5-.1 5.2-1.7 5.2-3.8z"/></svg>