<svg xmlns="http://www.w3.org/2000/svg" width="30" height="80" xml:space="preserve"><path fill="#FFF" d="M27 7.3c-.9.4-1.8.7-2.8.8 1-.6 1.8-1.6 2.2-2.7-1 .6-2 1-3.1 1.2-.9-1-2.2-1.6-3.6-1.6-3.2 0-5.5 3-4.8 6-4.2-.2-7.8-2.1-10.2-5.1C3.4 8.1 4 11 6.2 12.5c-.8-.1-1.6-.3-2.2-.7-.1 2.3 1.6 4.4 3.9 4.9-.7.2-1.5.2-2.2.1.6 2 2.4 3.4 4.6 3.4-2.1 1.6-4.7 2.3-7.3 2 2.2 1.4 4.8 2.2 7.5 2.2 9.1 0 14.3-7.7 14-14.6 1-.7 1.8-1.5 2.5-2.5z"/><path fill="#0D6BA8" d="M27 57.3c-.9.4-1.8.7-2.8.8 1-.6 1.8-1.6 2.2-2.7-1 .6-2 1-3.1 1.2-.9-1-2.2-1.6-3.6-1.6-3.2 0-5.5 3-4.8 6-4.2-.2-7.8-2.1-10.2-5.1-1.3 2.2-.7 5.1 1.5 6.6-.8-.1-1.6-.3-2.2-.7-.1 2.3 1.6 4.4 3.9 4.9-.7.2-1.5.2-2.2.1.6 2 2.4 3.4 4.6 3.4-2.1 1.6-4.7 2.3-7.3 2 2.2 1.4 4.8 2.2 7.5 2.2 9.1 0 14.3-7.7 14-14.6 1-.7 1.8-1.5 2.5-2.5z"/></svg>