<svg xmlns="http://www.w3.org/2000/svg" width="178" height="128" xml:space="preserve"><path fill="#9FC8E1" d="M89 128 0 77.5V51.4l89 50.5z"/><path fill="#7CB3D6" d="M178 77.5 89 128v-26.1l89-50.5z"/><path fill="#FFF" d="M0 51.4 89 .7l89 50.7-89 50.5z"/><path fill="#C9DEEC" d="M113.6 32.7c-4.4-2.5-10.2-4-15.8-4-4.9 0-9.3 1-12.6 3-4 2.3-6.3 5.9-6.3 9.7 0 2.2.7 4.3 2.1 6.3C77.8 46 73.9 45 70 45c-3.4 0-6.4.7-8.8 2.1-3 1.8-4.8 4.5-4.8 7.6 0 3.4 2.2 6.6 5.9 8.7 3.1 1.8 6.9 2.8 10.9 2.8 3.4 0 6.4-.7 8.8-2.1.1 0 .2-.1.2-.1l9.6 2.6c.7 1.5 2 2.8 3.7 3.8 2.1 1.2 4.8 1.9 7.4 1.9 2.4 0 4.5-.5 6.2-1.5 2.4-1.4 3.7-3.6 3.7-6 0-2.7-1.6-5.1-4.4-6.7l-1.2-.6V57c3-.4 5.7-1.3 8-2.6 4-2.3 6.3-5.9 6.3-9.7.1-4.8-2.8-9.1-7.9-12zm-4.8 15.1c-4.1 2.4-11.3 2.1-16.1-.7-4.8-2.7-5.3-6.9-1.2-9.3 4.1-2.4 11.3-2.1 16.1.7 4.8 2.8 5.3 6.9 1.2 9.3zM67.4 57.9c-2.6-1.5-2.9-3.8-.6-5.1 2.3-1.3 6.3-1.2 8.9.4 2.6 1.5 2.9 3.8.6 5.1-2.2 1.3-6.2 1.2-8.9-.4z"/><linearGradient id="a" gradientUnits="userSpaceOnUse" x1="101.649" y1="34.45" x2="84.091" y2="60.256"><stop offset="0" style="stop-color:#379fd2"/><stop offset="1" style="stop-color:#1b538d"/></linearGradient><path fill="url(#a)" d="M111.4 36.4c-7.2-4.1-18-4.6-24.2-1-6.2 3.6-5.4 9.8 1.7 14 3.3 1.9 7.4 3 11.5 3.3l.2 7.5c-1.4 0-2.7.4-3.7.9-.3.2-.6.4-.8.6l-14-3.7c1-2.1-.2-4.7-3.4-6.6-4.6-2.6-11.5-2.9-15.5-.6s-3.5 6.3 1.1 8.9c4.6 2.6 11.5 2.9 15.5.6.6-.3 1.1-.7 1.4-1.1L95.5 63c-.3 1.2.5 2.5 2.2 3.5 2.8 1.6 7 1.8 9.4.4 2.4-1.4 2.1-3.8-.7-5.4-1-.6-2.1-.9-3.2-1.1l-.2-7.6c3.8 0 7.5-.8 10.2-2.4 6.2-3.6 5.4-9.9-1.8-14zm-35 21.9c-2.3 1.3-6.3 1.2-8.9-.4-2.6-1.5-2.9-3.8-.6-5.1 2.3-1.3 6.3-1.2 8.9.4 2.6 1.5 2.8 3.8.6 5.1zm32.4-10.5c-4.1 2.4-11.3 2.1-16.1-.7-4.8-2.7-5.3-6.9-1.2-9.3 4.1-2.4 11.3-2.1 16.1.7 4.8 2.8 5.3 6.9 1.2 9.3z"/></svg>