<svg xmlns="http://www.w3.org/2000/svg" width="28" height="28" xml:space="preserve"><linearGradient id="a" gradientUnits="userSpaceOnUse" x1="3.301" y1="7" x2="25.546" y2="21.553"><stop offset="0" style="stop-color:#23c1e7"/><stop offset="1" style="stop-color:#1283c6"/></linearGradient><path fill="url(#a)" d="M14 0C6.3 0 0 6.3 0 14s6.3 14 14 14 14-6.3 14-14S21.7 0 14 0zm0 26.3C7.2 26.3 1.7 20.8 1.7 14S7.2 1.7 14 1.7 26.3 7.2 26.3 14 20.8 26.3 14 26.3zm5.5-13.5-1.6-1.6L14 14l-3.9-2.8-1.6 1.6 5.5 4 5.5-4zm0-4.3-1.6-1.6L14 9.7l-3.9-2.8-1.6 1.6 5.5 4 5.5-4zm-13 12.6h15.1v-2.2H6.5v2.2z"/></svg>