<svg xmlns="http://www.w3.org/2000/svg" width="19" height="40" xml:space="preserve"><path fill="#576369" d="M12.8 2.1C10-.7 5.4-.7 2.6 2.1-.2 4.9-.3 9.5 2.5 12.3s7.4 2.9 10.2.1c2.8-2.8 2.9-7.4.1-10.3zm-1.6 8.7c-2 2-5.2 1.9-7.1 0-2-2-1.9-5.2 0-7.1 2-2 5.2-1.9 7.1 0 1.9 1.9 2 5.1 0 7.1zm7.5 4.8-4.2-3.8c-.1-.1-.2-.1-.3-.2-.3.4-.6.8-1 1.2-.3.4-.7.7-1.1 1 0 .1.1.2.1.2l3.7 4.3c.4.5 1.1.5 1.5.1l1.3-1.3c.4-.4.4-1.1 0-1.5z"/><path fill="#FFF" d="M12.8 23.5c-2.8-2.8-7.4-2.9-10.2-.1-2.8 2.8-2.9 7.4-.1 10.2 2.8 2.8 7.4 2.9 10.2.1 2.9-2.8 2.9-7.4.1-10.2zm-1.6 8.6c-2 2-5.2 1.9-7.1 0-2-2-1.9-5.2 0-7.1 2-2 5.2-1.9 7.1 0 1.9 1.9 2 5.2 0 7.1zm7.5 4.8-4.2-3.8c-.1 0-.2-.1-.3-.1-.3.4-.6.8-1 1.2-.3.3-.7.6-1.1.9 0 .1.1.2.1.2l3.7 4.3c.4.5 1.1.5 1.5.1l1.3-1.3c.4-.4.4-1.1 0-1.5z"/></svg>