<svg xmlns="http://www.w3.org/2000/svg" width="28" height="28" xml:space="preserve"><linearGradient id="a" gradientUnits="userSpaceOnUse" x1="21.173" y1="5.516" x2="5.59" y2="23.948"><stop offset="0" style="stop-color:#19a7d7"/><stop offset=".311" style="stop-color:#2fc4e8"/><stop offset="1" style="stop-color:#1283c6"/></linearGradient><path fill="url(#a)" d="M14 28C6.3 28 0 21.7 0 14S6.3 0 14 0s14 6.3 14 14-6.3 14-14 14zm0-26.3C7.2 1.7 1.7 7.2 1.7 14S7.2 26.3 14 26.3c6.8 0 12.3-5.5 12.3-12.3S20.8 1.7 14 1.7z"/><path fill="#0F80C4" d="m8.8 8.2 5.6 5.8-5.6 5.8 3.2 2.3 7.9-8.1L12 5.8z"/></svg>